#define max_toggled_width 10
#define max_toggled_height 10
static unsigned char max_toggled_bits[] = {
   0x30, 0x00, 0x30, 0x00, 0x30, 0x00, 0x30, 0x00, 0xff, 0x03, 0xff, 0x03,
   0x30, 0x00, 0x30, 0x00, 0x30, 0x00, 0x30, 0x00 };
